<svg version="1.1" id="Layer_1" xmlns="http://www.w3.org/2000/svg" xmlns:xlink="http://www.w3.org/1999/xlink" x="0px" y="0px"
	 viewBox="0 0 24 20" style="enable-background:new 0 0 24 20;" xml:space="preserve">
<path d="M11.3,0.6c0.4-0.3,1-0.3,1.4,0l10,7.7c0.4,0.3,0.5,0.9,0.1,1.3c-0.4,0.4-1,0.4-1.5,0.1l-0.3-0.3V17c0,1.3-1.2,2.4-2.7,2.4
	H5.8C4.3,19.3,3,18.3,3,17V9.4L2.7,9.6C2.3,9.9,1.6,9.9,1.2,9.6S0.9,8.6,1.3,8.3L11.3,0.6z M12,2.4L5.1,7.8V17
	c0,0.3,0.3,0.6,0.7,0.6h2.1v-3.9c0-1.5,1.4-2.7,3.1-2.7H13c1.7,0,3.1,1.2,3.1,2.7v3.9h2.1c0.4,0,0.7-0.3,0.7-0.6V7.8L12,2.4L12,2.4z
	 M9.9,17.6H14v-3.9c0-0.5-0.5-0.9-1-0.9h-2.1c-0.6,0-1,0.4-1,0.9V17.6z"/>
</svg>
